<mxfile host="app.diagrams.net" modified="2023-12-18T11:33:19.019Z" agent="Mozilla/5.0 (Windows NT 10.0; Win64; x64) AppleWebKit/537.36 (KHTML, like Gecko) Chrome/120.0.0.0 Safari/537.36" version="22.1.11" etag="1T1VEImqmR5fRdGkrnSe" type="github">
  <diagram name="Sayfa -1" id="p5vQxmu3ToGNeuIzAG_l">
    <mxGraphModel>
      <root>
        <mxCell id="0" />
        <mxCell id="1" parent="0" />
      </root>
    </mxGraphModel>
  </diagram>
</mxfile>
